# This file uses centimeters as units for non-parametric coordinates.

v -6.161895 0.859474 4.008566
v 6.300943 0.859474 4.008566
v -6.893596 0.859474 -3.860876
v 7.147287 0.859474 -3.860876
v -5.561895 0.452196 3.408566
v 5.700943 0.452196 3.408566
v 6.547287 0.452196 -3.260876
v -6.293596 0.452196 -3.260876
v 5.892866 0.429737 3.993665
v -5.753818 0.429737 3.993665
v -6.485519 0.429737 -3.845975
v 6.739210 0.429737 -3.845975
vt 0.621039 0.116633
vt 0.517323 0.678357
vt 0.173019 0.713081
vt 0.067507 0.082597
vt 0.595178 0.627152
vt 0.598993 0.931868
vt 0.140170 0.747642
vt 0.029379 0.045634
vt 0.589529 0.949661
vt 0.592440 0.616343
vt 0.957515 0.611159
vt 0.968549 0.593882
vt 0.549698 0.712035
vt 0.968612 0.971827
vt 0.657557 0.073111
vt 0.957530 0.954562
vn 0.039871 0.996620 -0.071830
vn -0.039288 0.996642 -0.071848
vn -0.048172 0.995661 0.079615
vn 0.047473 0.995689 0.079686
vn 0.241701 0.889957 -0.386727
vn -0.243234 0.888808 -0.388405
vn -0.200163 0.899921 0.387396
vn 0.201947 0.899215 0.388111
vn 0.000000 -0.034654 0.999399
vn 0.000000 -0.034654 0.999399
vn 0.000000 -0.034654 0.999399
vn 0.000000 -0.034654 0.999399
vn -0.723497 -0.687030 0.067398
vn -0.723497 -0.687030 0.067398
vn -0.723497 -0.687030 0.067398
vn -0.723497 -0.687030 0.067398
vn 0.000000 -0.034654 -0.999399
vn 0.000000 -0.034654 -0.999399
vn 0.000000 -0.034654 -0.999399
vn 0.000000 -0.034654 -0.999399
vn 0.722942 -0.686503 0.077899
vn 0.722942 -0.686504 0.077899
vn 0.722942 -0.686504 0.077899
vn 0.722942 -0.686504 0.077899
s 1
f 5/1/1 6/2/2 7/3/3 8/4/4
f 1/15/5 2/13/6 6/2/2 5/1/1
f 2/13/6 4/7/7 7/3/3 6/2/2
f 4/7/7 3/8/8 8/4/4 7/3/3
f 3/8/8 1/15/5 5/1/1 8/4/4
s off
f 10/5/9 9/6/10 2/9/11 1/10/12
f 11/11/13 10/5/14 1/10/15 3/12/16
f 3/12/17 4/14/18 12/16/19 11/11/20
f 9/6/21 12/16/22 4/14/23 2/9/24
